<?xml version="1.0" encoding="utf-8"?>
<!-- Generator: Adobe Illustrator 21.0.0, SVG Export Plug-In . SVG Version: 6.00 Build 0)  -->
<svg version="1.1" id="Layer_1" xmlns="http://www.w3.org/2000/svg" xmlns:xlink="http://www.w3.org/1999/xlink" 
	 viewBox="-900 -200 1920 1080" xml:space="preserve" >
<style type="text/css">
	    .st0{
            stroke:#cc00cc;
            stroke-width: 3;
            stroke-miterlimit:0;
            stroke-dasharray: 900;
            stroke-dashoffset: 10;
            animation: draw 15s ease-out forwards;
            }

        @keyframes draw{
            0%{
            stroke-dashoffset: 1000;
            fill: #0a0809;
            stroke: #ff00ff;
            }
            100%
            {
            stroke-dashoffset: 2000;
            fill: #ff00ff;
            stroke: #cc00cc;
            }
        }

        .st1{
            stroke:#e9ebe8;
            stroke-width: 1;
            fill: e9ebe8;
            stroke-miterlimit:0;
            stroke-dasharray: 250;
            stroke-dashoffset: 0;
            animation: draw1 15s ease-out forwards;
            }

        @keyframes draw1{
            0%{
            stroke-dashoffset: 250;
            fill: #0a0809;
            

            }
            100%
            {
            stroke-dashoffset: 0;
            fill: #e9ebe8;
            }
        }

        .st2{
            stroke:#0a0809;
            stroke-width: 0,5;
            fill: ff00ff;
            stroke-miterlimit:0;
            stroke-dasharray: 250;
            stroke-dashoffset: 0;
            animation: draw2 15s ease-out forwards;
            }
        @keyframes draw2{
            0%{
            stroke-dashoffset: 250;
            fill: #0a0809;
            stroke: #0a0809;
            }
            100%
            {
            stroke-dashoffset: 0;
            fill: #ff00ff;
            stroke: #ff00ff;
            }
        }
</style>
<g>
	<path class="st0" d="M427.4,231.4c0,54.3-26.9,81.4-80.8,81.4h-48.4V152.6h48.4c27,0,47.2,6.5,60.6,19.6S427.4,204.9,427.4,231.4z
		 M414.9,231.4c0-10.5-1-20-3.1-28.3c-2.1-8.3-5.8-15.4-11-21.2c-5.3-5.8-12.3-10.2-21.1-13.3c-8.8-3-19.9-4.5-33.4-4.5h-36.4v137
		h36.4c13.3,0,24.4-1.6,33.2-4.7c8.8-3.1,15.9-7.7,21.1-13.7s9-13.3,11.1-21.9C413.9,252.2,414.9,242.4,414.9,231.4z"/>
	<path class="st0" d="M521.4,196.4c7.7,0,14.7,1.3,20.9,4c6.2,2.7,11.5,6.6,15.9,11.7c4.4,5.1,7.7,11.4,10.1,18.8
		c2.3,7.4,3.5,15.7,3.5,25c0,9.5-1.2,17.9-3.6,25.3c-2.4,7.4-5.8,13.7-10.2,18.8c-4.4,5.1-9.7,9-15.9,11.7c-6.2,2.7-13.2,4-20.7,4
		s-14.5-1.3-20.7-4c-6.2-2.6-11.5-6.5-15.9-11.6c-4.4-5.1-7.8-11.4-10.2-18.8c-2.4-7.4-3.7-15.9-3.7-25.5c0-9.4,1.2-17.7,3.6-25.1
		c2.4-7.4,5.8-13.6,10.2-18.7c4.4-5.1,9.7-9,15.9-11.6C506.9,197.7,513.9,196.4,521.4,196.4z M521.4,304c5.7,0,11-1,15.7-3
		c4.7-2,8.8-5,12.2-9.1c3.4-4.1,6.1-9.1,8-15.1c1.9-6,2.8-13,2.8-21c0-7.9-1-14.9-2.8-20.9c-1.9-6-4.6-11-8-14.9
		c-3.4-4-7.5-6.9-12.2-8.9c-4.7-2-10-3-15.7-3c-5.8,0-11.1,1-15.9,3c-4.7,2-8.8,5-12.2,8.9c-3.4,4-6,8.9-7.9,14.9
		c-1.9,6-2.8,13-2.8,20.9c0,8,0.9,15,2.8,21c1.8,6,4.5,11,7.9,15.1c3.4,4.1,7.5,7.1,12.2,9.1C510.3,303,515.6,304,521.4,304z"/>
	<path class="st0" d="M633.2,312.8h-11.7V152.4h11.7V312.8z"/>
	<path class="st0" d="M733,315.8c-7.5,0-14.3-1.3-20.5-4c-6.2-2.6-11.5-6.5-15.9-11.6c-4.4-5.1-7.9-11.3-10.3-18.8
		c-2.4-7.4-3.7-15.9-3.7-25.5c0-9.4,1.2-17.8,3.6-25.2c2.4-7.4,5.8-13.7,10.2-18.8c4.4-5.1,9.7-9,15.9-11.6c6.2-2.7,13.1-4,20.7-4
		c5.5,0,10.5,0.7,15.3,2.2c4.7,1.5,8.9,3.6,12.6,6.4c3.7,2.8,6.7,6.3,9.2,10.5c2.5,4.2,4.2,9,5.2,14.4h-11.4
		c-0.5-3.5-1.6-6.6-3.3-9.4c-1.7-2.7-3.9-5-6.6-6.9c-2.7-1.9-5.9-3.2-9.4-4.2c-3.6-0.9-7.4-1.4-11.5-1.4c-5.7,0-11,1-15.8,3
		c-4.8,2-8.9,5-12.3,9c-3.4,4-6,9-7.9,15c-1.9,6-2.8,13-2.8,20.9c0,8,0.9,15,2.8,21c1.8,6,4.5,11,7.9,15c3.4,4,7.5,7,12.3,9
		c4.8,2,10,3,15.8,3c3.8,0,7.5-0.5,11-1.4c3.5-0.9,6.6-2.3,9.4-4.1c2.8-1.8,5.1-4.1,6.9-6.7c1.8-2.7,3-5.8,3.5-9.4h11.4
		c-1.1,5.5-2.8,10.3-5.3,14.4c-2.5,4.2-5.6,7.6-9.2,10.5c-3.7,2.8-7.8,5-12.6,6.4C743.4,315,738.3,315.8,733,315.8z"/>
	<path class="st0" d="M864.2,315.8c-7.9,0-15-1.3-21.5-4c-6.4-2.7-12-6.6-16.6-11.7c-4.6-5.1-8.2-11.4-10.7-18.8
		c-2.5-7.4-3.8-15.9-3.8-25.3c0-9.2,1.2-17.5,3.7-24.8c2.4-7.4,5.9-13.6,10.4-18.8c4.5-5.1,9.8-9.1,15.9-11.8
		c6.1-2.7,13-4.1,20.5-4.1c7.7,0,14.7,1.4,20.9,4.1c6.2,2.7,11.5,6.7,15.9,11.8s7.7,11.4,10.1,18.8c2.3,7.4,3.5,15.7,3.5,25v2.6
		h-89.1c0.6,7.7,2,14.4,4.2,20.1c2.2,5.7,5.2,10.4,8.8,14.1c3.6,3.8,7.8,6.6,12.5,8.4c4.7,1.9,9.9,2.8,15.4,2.8
		c3.9,0,7.8-0.5,11.7-1.4c3.9-0.9,7.4-2.3,10.6-4.2c3.2-1.9,5.8-4.1,8-6.9c2.1-2.7,3.4-5.9,3.8-9.4h11.5c-1.1,5.4-3,10.1-5.7,14.3
		c-2.7,4.2-6.1,7.7-10.1,10.5c-4,2.9-8.5,5.1-13.6,6.5C875.3,315,869.9,315.8,864.2,315.8z M900.6,246.9c-1.9-13-6.4-22.7-13.2-29.2
		c-6.9-6.4-15.3-9.7-25.4-9.7c-5,0-9.6,0.8-13.9,2.3c-4.3,1.6-8.1,4-11.5,7.2s-6.2,7.3-8.5,12.2c-2.3,4.9-3.9,10.6-4.9,17.1H900.6z"
		/>
	<path class="st1" d="M290.7,372.8h-10.5v-1.5h10.5V372.8z"/>
	<path class="st1" d="M336.2,380h-1.7l-2.3-6.2h-9.5c-0.3,1-0.7,2-1.1,3.1c-0.4,1.1-0.8,2.1-1.1,3.1H319c0.6-1.7,1.3-3.3,1.9-4.9
		s1.2-3.2,1.8-4.8s1.2-3.2,1.8-4.8s1.2-3.2,1.9-4.9h2L336.2,380z M331.8,372.7l-4.5-10.7l-4.2,10.7H331.8z"/>
	<path class="st1" d="M379.6,380h-1.5l-1.9-5.1c-0.2-0.5-0.4-1-0.6-1.4c-0.2-0.4-0.5-0.8-0.8-1.1c-0.3-0.3-0.7-0.6-1-0.8
		s-0.9-0.3-1.4-0.3h-6.7v8.7h-1.4v-19.2h8.6c0.8,0,1.6,0.1,2.3,0.2s1.4,0.4,2,0.8c0.6,0.4,1.1,0.9,1.4,1.6c0.4,0.7,0.5,1.5,0.5,2.5
		c0,0.6-0.1,1.2-0.2,1.8s-0.4,1.1-0.7,1.5c-0.3,0.4-0.7,0.8-1.2,1.1c-0.5,0.3-1.1,0.5-1.7,0.7c0.4,0.3,0.7,0.6,0.9,0.8
		s0.4,0.5,0.6,0.8s0.3,0.6,0.5,1c0.1,0.4,0.3,0.8,0.5,1.2L379.6,380z M365.6,369.9h6.7c0.9,0,1.8-0.1,2.4-0.2
		c0.7-0.1,1.2-0.4,1.7-0.7s0.8-0.7,1-1.3s0.3-1.1,0.3-1.9c0-1.3-0.4-2.3-1.3-2.8c-0.8-0.6-2.1-0.9-3.7-0.9h-7.1V369.9z"/>
	<path class="st1" d="M422.1,362.2h-6.7V380H414v-17.8h-6.6v-1.4h14.8V362.2z"/>
	<path class="st1" d="M452.6,380h-1.4v-19.2h1.4V380z"/>
	<path class="st1" d="M490.3,380.4c-1.3,0-2.4-0.1-3.4-0.4s-1.8-0.7-2.4-1.2c-0.7-0.5-1.2-1.1-1.5-1.8c-0.4-0.7-0.6-1.5-0.6-2.4h1.4
		c0.1,0.9,0.4,1.6,0.8,2.2s0.9,1,1.4,1.4s1.2,0.6,1.9,0.7s1.5,0.2,2.3,0.2c0.9,0,1.6-0.1,2.3-0.3c0.7-0.2,1.3-0.4,1.8-0.8
		c0.5-0.3,0.9-0.8,1.1-1.2c0.3-0.5,0.4-1,0.4-1.6c0-0.6-0.1-1.2-0.3-1.6s-0.6-0.8-1.1-1.2s-1.2-0.6-2.1-0.9
		c-0.9-0.3-1.9-0.5-3.2-0.8c-1.1-0.2-2-0.5-2.7-0.8s-1.4-0.7-1.9-1.1c-0.5-0.4-0.9-0.9-1.1-1.4c-0.2-0.5-0.4-1.1-0.4-1.8
		c0-0.8,0.2-1.4,0.5-2.1s0.8-1.2,1.3-1.6s1.3-0.8,2.1-1s1.7-0.4,2.7-0.4s1.9,0.1,2.7,0.3s1.5,0.6,2.1,1s1.1,1,1.5,1.6
		s0.6,1.3,0.7,2.1h-1.4c-0.1-0.5-0.3-1-0.6-1.4c-0.3-0.4-0.7-0.8-1.1-1.2c-0.5-0.3-1-0.6-1.6-0.8s-1.4-0.3-2.2-0.3
		c-1.7,0-3,0.3-3.9,0.9c-0.9,0.6-1.3,1.5-1.3,2.6c0,0.5,0.1,0.9,0.2,1.3s0.4,0.7,0.8,1s0.9,0.6,1.6,0.8c0.6,0.2,1.4,0.4,2.4,0.6
		c0.6,0.1,1.1,0.2,1.7,0.4s1.2,0.3,1.7,0.5c0.6,0.2,1.1,0.4,1.6,0.7c0.5,0.3,1,0.6,1.3,0.9s0.7,0.8,0.9,1.3c0.2,0.5,0.3,1.1,0.3,1.9
		c0,0.8-0.2,1.6-0.5,2.3s-0.8,1.3-1.4,1.8s-1.3,0.9-2.2,1.2S491.3,380.4,490.3,380.4z"/>
	<path class="st1" d="M541.6,380h-1.7l-2.3-6.2h-9.5c-0.3,1-0.7,2-1.1,3.1s-0.8,2.1-1.1,3.1h-1.5c0.6-1.7,1.3-3.3,1.9-4.9
		s1.2-3.2,1.8-4.8s1.2-3.2,1.8-4.8c0.6-1.6,1.2-3.2,1.9-4.9h2L541.6,380z M537.2,372.7l-4.5-10.7l-4.2,10.7H537.2z"/>
	<path class="st1" d="M584.5,380h-1.8l-11.7-17.6V380h-1.4v-19.2h1.9l11.6,17.5v-17.5h1.4V380z"/>
	<path class="st1" d="M655.7,360.3h7c0.9,0,1.8,0.1,2.7,0.2c0.9,0.2,1.6,0.4,2.3,0.8c0.7,0.4,1.2,1,1.6,1.6s0.6,1.6,0.6,2.6
		c0,1.9-0.6,3.3-1.8,4.3s-2.9,1.5-5.2,1.5h-5.8v8.1h-1.4V360.3z M657.1,370h5.8c1,0,1.8-0.1,2.5-0.3c0.7-0.2,1.3-0.5,1.7-0.8
		s0.8-0.8,1-1.3c0.2-0.5,0.3-1.2,0.3-1.9c0-0.9-0.1-1.5-0.4-2.1s-0.7-0.9-1.2-1.2c-0.5-0.3-1.1-0.5-1.8-0.6s-1.4-0.1-2.1-0.1h-5.7
		V370z"/>
	<path class="st1" d="M714.1,379.5h-1.7l-2.3-6.2h-9.5c-0.3,1-0.7,2-1.1,3.1s-0.8,2.1-1.1,3.1h-1.5c0.6-1.7,1.3-3.3,1.9-4.9
		s1.2-3.2,1.8-4.8c0.6-1.6,1.2-3.2,1.8-4.8c0.6-1.6,1.2-3.2,1.9-4.9h2L714.1,379.5z M709.7,372.2l-4.5-10.7l-4.2,10.7H709.7z"/>
	<path class="st1" d="M749.2,379.9c-1.3,0-2.4-0.1-3.4-0.4c-1-0.3-1.8-0.7-2.4-1.2c-0.7-0.5-1.2-1.1-1.5-1.8s-0.6-1.5-0.6-2.4h1.4
		c0.1,0.9,0.4,1.6,0.8,2.2s0.9,1,1.4,1.4c0.6,0.3,1.2,0.6,1.9,0.7c0.7,0.1,1.5,0.2,2.3,0.2c0.9,0,1.6-0.1,2.3-0.3s1.3-0.4,1.8-0.8
		c0.5-0.3,0.9-0.8,1.1-1.2c0.3-0.5,0.4-1,0.4-1.6c0-0.6-0.1-1.2-0.3-1.6c-0.2-0.4-0.6-0.8-1.1-1.2c-0.5-0.3-1.2-0.6-2.1-0.9
		c-0.9-0.3-1.9-0.5-3.2-0.8c-1.1-0.2-2-0.5-2.7-0.8s-1.4-0.7-1.9-1.1c-0.5-0.4-0.9-0.9-1.1-1.4c-0.2-0.5-0.4-1.1-0.4-1.8
		c0-0.8,0.2-1.4,0.5-2.1s0.8-1.2,1.3-1.6c0.6-0.4,1.3-0.8,2.1-1s1.7-0.4,2.7-0.4c1,0,1.9,0.1,2.7,0.3s1.5,0.6,2.1,1
		c0.6,0.4,1.1,1,1.5,1.6s0.6,1.3,0.7,2.1h-1.3c-0.1-0.5-0.3-1-0.6-1.4s-0.7-0.8-1.1-1.2s-1-0.6-1.6-0.8c-0.6-0.2-1.4-0.3-2.2-0.3
		c-1.7,0-3,0.3-3.9,0.9s-1.3,1.5-1.3,2.6c0,0.5,0.1,0.9,0.2,1.3c0.2,0.4,0.4,0.7,0.8,1c0.4,0.3,0.9,0.6,1.6,0.8
		c0.6,0.2,1.4,0.4,2.4,0.6c0.6,0.1,1.1,0.2,1.7,0.4c0.6,0.1,1.2,0.3,1.7,0.5c0.6,0.2,1.1,0.4,1.6,0.7c0.5,0.3,1,0.6,1.3,0.9
		s0.7,0.8,0.9,1.3c0.2,0.5,0.3,1.1,0.3,1.9c0,0.8-0.2,1.6-0.5,2.3s-0.8,1.3-1.4,1.8c-0.6,0.5-1.3,0.9-2.2,1.2
		S750.2,379.9,749.2,379.9z"/>
	<path class="st1" d="M798.5,361.7h-6.7v17.8h-1.4v-17.8h-6.6v-1.4h14.8V361.7z"/>
	<path class="st1" d="M843.4,380h-1.5l-1.9-5.1c-0.2-0.5-0.4-1-0.6-1.4c-0.2-0.4-0.5-0.8-0.8-1.1s-0.7-0.6-1-0.8s-0.9-0.3-1.4-0.3
		h-6.7v8.7H828v-19.2h8.6c0.8,0,1.6,0.1,2.3,0.2s1.4,0.4,2,0.8c0.6,0.4,1.1,0.9,1.4,1.6s0.5,1.5,0.5,2.5c0,0.6-0.1,1.2-0.2,1.8
		c-0.2,0.6-0.4,1.1-0.7,1.5s-0.7,0.8-1.2,1.1c-0.5,0.3-1.1,0.5-1.7,0.7c0.4,0.3,0.7,0.6,0.9,0.8c0.2,0.3,0.4,0.5,0.6,0.8
		c0.2,0.3,0.3,0.6,0.5,1c0.1,0.4,0.3,0.8,0.5,1.2L843.4,380z M829.4,369.9h6.7c0.9,0,1.8-0.1,2.4-0.2s1.2-0.4,1.7-0.7s0.8-0.7,1-1.3
		c0.2-0.5,0.3-1.1,0.3-1.9c0-1.3-0.4-2.3-1.3-2.8s-2.1-0.9-3.7-0.9h-7.1V369.9z"/>
	<path class="st1" d="M887.5,360.8l-7.5,11v8.3h-1.4v-8.3l-7.6-11h1.6l6.6,9.5l6.6-9.5H887.5z"/>
	<path class="st1" d="M926.7,372.8h-10.5v-1.5h10.5V372.8z"/>
	<path class="st2" d="M387.6,419.6c0,1.2-0.4,2.1-1.2,2.7s-1.9,0.9-3.5,0.9h-4.7v-12.8h4.6c1.3,0,2.3,0.2,3,0.7c0.7,0.5,1,1.3,1,2.3
		c0,0.3,0,0.6-0.1,0.9s-0.2,0.6-0.3,0.9c-0.2,0.3-0.4,0.5-0.6,0.7s-0.6,0.4-1.1,0.5c0.6,0.1,1.1,0.2,1.4,0.4s0.6,0.5,0.8,0.8
		s0.3,0.6,0.4,1C387.6,418.9,387.6,419.3,387.6,419.6z M379.3,416h3.4c1.1,0,2-0.2,2.5-0.6c0.5-0.4,0.8-1,0.8-1.9
		c0-0.8-0.2-1.4-0.7-1.7s-1.3-0.6-2.4-0.6l-3.6,0V416z M379.3,422.3h3.7c2.4,0,3.6-0.9,3.6-2.7c0-0.5-0.1-0.9-0.2-1.2
		c-0.1-0.3-0.3-0.6-0.6-0.8c-0.3-0.2-0.7-0.4-1.2-0.5c-0.5-0.1-1.1-0.2-1.9-0.2h-3.4V422.3z"/>
	<path class="st2" d="M411.5,414.1l-3.3,9.2c-0.2,0.5-0.4,1-0.6,1.4s-0.4,0.8-0.7,1c-0.2,0.3-0.5,0.5-0.8,0.6
		c-0.3,0.1-0.6,0.2-1,0.2c-0.1,0-0.2,0-0.4,0c-0.1,0-0.2,0-0.4,0v-1c0.1,0,0.1,0,0.2,0c0.1,0,0.1,0,0.2,0c0.5,0,1-0.2,1.4-0.6
		s0.7-1,1-1.8l-3.4-9.2h1l3,7.9l2.7-7.9H411.5z"/>
	<path class="st2" d="M463.3,416.7c0,4.3-2.2,6.5-6.5,6.5H453v-12.8h3.9c2.2,0,3.8,0.5,4.9,1.6C462.8,413,463.3,414.6,463.3,416.7z
		 M462.3,416.7c0-0.8-0.1-1.6-0.3-2.3s-0.5-1.2-0.9-1.7s-1-0.8-1.7-1.1c-0.7-0.2-1.6-0.4-2.7-0.4h-2.9v11h2.9c1.1,0,2-0.1,2.7-0.4
		c0.7-0.3,1.3-0.6,1.7-1.1s0.7-1.1,0.9-1.8S462.3,417.6,462.3,416.7z"/>
	<path class="st2" d="M486.2,422.1c-0.3,0.3-0.6,0.5-0.9,0.7c-0.3,0.2-0.6,0.3-0.9,0.4c-0.3,0.1-0.6,0.2-0.9,0.2
		c-0.3,0-0.6,0.1-0.9,0.1c-0.4,0-0.8-0.1-1.1-0.2c-0.3-0.1-0.6-0.3-0.9-0.5s-0.4-0.5-0.6-0.8c-0.1-0.3-0.2-0.7-0.2-1
		c0-1,0.4-1.8,1.3-2.4c0.9-0.6,2.2-0.9,4-0.9h1.1c0-0.4,0-0.8-0.1-1.1s-0.2-0.6-0.3-0.9c-0.2-0.2-0.4-0.4-0.8-0.6
		c-0.3-0.1-0.8-0.2-1.4-0.2c-0.8,0-1.5,0.1-1.9,0.4s-0.7,0.7-0.8,1.2h-0.9c0.1-0.9,0.4-1.5,1-1.9s1.4-0.6,2.6-0.6
		c0.6,0,1.2,0.1,1.6,0.2s0.8,0.4,1.1,0.7c0.3,0.3,0.5,0.6,0.6,1.1c0.1,0.4,0.2,0.9,0.2,1.4v5.9h-0.9V422.1z M486.2,418.5h-1.4
		c-1.4,0-2.4,0.2-3,0.6c-0.7,0.4-1,0.9-1,1.7c0,0.5,0.2,1,0.6,1.3c0.4,0.3,1,0.5,1.7,0.5c0.3,0,0.6,0,0.9-0.1
		c0.3-0.1,0.6-0.2,0.8-0.4c0.3-0.2,0.5-0.3,0.7-0.5c0.2-0.2,0.4-0.4,0.6-0.6V418.5z"/>
	<path class="st2" d="M505.5,415.5c0.3-0.4,0.6-0.6,0.9-0.9c0.3-0.2,0.6-0.4,0.9-0.5c0.3-0.1,0.5-0.2,0.8-0.2c0.3,0,0.5,0,0.7,0
		c1.9,0,2.8,1.1,2.8,3.3v6h-0.9v-5.9c0-0.4,0-0.8-0.1-1.1s-0.2-0.6-0.4-0.8c-0.2-0.2-0.4-0.3-0.7-0.4c-0.3-0.1-0.6-0.1-1-0.1
		c-0.5,0-1,0.2-1.5,0.5c-0.5,0.3-1,0.7-1.5,1.3v6.6h-0.9v-9.1h0.9V415.5z"/>
	<path class="st2" d="M529.9,423.2H529v-9.1h0.9V423.2z M530,411.9H529v-1.5h0.9V411.9z"/>
	<path class="st2" d="M551,423.5c-0.6,0-1.2-0.1-1.7-0.3s-1-0.5-1.3-0.9c-0.4-0.4-0.7-0.9-0.9-1.5c-0.2-0.6-0.3-1.3-0.3-2
		c0-0.7,0.1-1.4,0.3-2c0.2-0.6,0.5-1.1,0.8-1.5s0.8-0.7,1.3-0.9c0.5-0.2,1-0.3,1.6-0.3c0.6,0,1.2,0.1,1.7,0.3
		c0.5,0.2,0.9,0.5,1.3,0.9c0.4,0.4,0.6,0.9,0.8,1.5c0.2,0.6,0.3,1.3,0.3,2v0.2h-7.1c0,0.6,0.2,1.2,0.3,1.6c0.2,0.5,0.4,0.8,0.7,1.1
		c0.3,0.3,0.6,0.5,1,0.7s0.8,0.2,1.2,0.2c0.3,0,0.6,0,0.9-0.1s0.6-0.2,0.8-0.3s0.5-0.3,0.6-0.6c0.2-0.2,0.3-0.5,0.3-0.8h0.9
		c-0.1,0.4-0.2,0.8-0.5,1.1c-0.2,0.3-0.5,0.6-0.8,0.8c-0.3,0.2-0.7,0.4-1.1,0.5S551.4,423.5,551,423.5z M553.9,418
		c-0.2-1-0.5-1.8-1.1-2.3c-0.5-0.5-1.2-0.8-2-0.8c-0.4,0-0.8,0.1-1.1,0.2s-0.6,0.3-0.9,0.6c-0.3,0.3-0.5,0.6-0.7,1
		c-0.2,0.4-0.3,0.8-0.4,1.4H553.9z"/>
	<path class="st2" d="M572.7,423.2h-0.9v-12.8h0.9V423.2z"/>
	<path class="st2" d="M622.7,423.2h-7.5v-12.8h0.9v11.9h6.6V423.2z"/>
	<path class="st2" d="M643.1,423.5c-0.6,0-1.2-0.1-1.7-0.3s-1-0.5-1.3-0.9c-0.4-0.4-0.7-0.9-0.9-1.5c-0.2-0.6-0.3-1.3-0.3-2
		c0-0.7,0.1-1.4,0.3-2c0.2-0.6,0.5-1.1,0.8-1.5s0.8-0.7,1.3-0.9c0.5-0.2,1-0.3,1.6-0.3c0.6,0,1.2,0.1,1.7,0.3
		c0.5,0.2,0.9,0.5,1.3,0.9c0.4,0.4,0.6,0.9,0.8,1.5c0.2,0.6,0.3,1.3,0.3,2v0.2h-7.1c0,0.6,0.2,1.2,0.3,1.6c0.2,0.5,0.4,0.8,0.7,1.1
		c0.3,0.3,0.6,0.5,1,0.7s0.8,0.2,1.2,0.2c0.3,0,0.6,0,0.9-0.1s0.6-0.2,0.8-0.3s0.5-0.3,0.6-0.6c0.2-0.2,0.3-0.5,0.3-0.8h0.9
		c-0.1,0.4-0.2,0.8-0.5,1.1c-0.2,0.3-0.5,0.6-0.8,0.8c-0.3,0.2-0.7,0.4-1.1,0.5S643.5,423.5,643.1,423.5z M646,418
		c-0.2-1-0.5-1.8-1.1-2.3c-0.5-0.5-1.2-0.8-2-0.8c-0.4,0-0.8,0.1-1.1,0.2s-0.6,0.3-0.9,0.6c-0.3,0.3-0.5,0.6-0.7,1
		c-0.2,0.4-0.3,0.8-0.4,1.4H646z"/>
	<path class="st2" d="M667.2,423.5c-0.6,0-1.1-0.1-1.6-0.3s-0.9-0.5-1.3-0.9c-0.4-0.4-0.6-0.9-0.8-1.5c-0.2-0.6-0.3-1.3-0.3-2
		c0-0.8,0.1-1.4,0.3-2c0.2-0.6,0.5-1.1,0.8-1.5c0.4-0.4,0.8-0.7,1.3-0.9s1-0.3,1.7-0.3c0.4,0,0.8,0.1,1.2,0.2s0.7,0.3,1,0.5
		s0.5,0.5,0.7,0.8c0.2,0.3,0.3,0.7,0.4,1.1h-0.9c0-0.3-0.1-0.5-0.3-0.8c-0.1-0.2-0.3-0.4-0.5-0.6c-0.2-0.1-0.5-0.3-0.8-0.3
		c-0.3-0.1-0.6-0.1-0.9-0.1c-0.5,0-0.9,0.1-1.3,0.2s-0.7,0.4-1,0.7c-0.3,0.3-0.5,0.7-0.6,1.2c-0.1,0.5-0.2,1-0.2,1.7
		c0,0.6,0.1,1.2,0.2,1.7c0.1,0.5,0.4,0.9,0.6,1.2c0.3,0.3,0.6,0.6,1,0.7s0.8,0.2,1.3,0.2c0.3,0,0.6,0,0.9-0.1
		c0.3-0.1,0.5-0.2,0.8-0.3c0.2-0.1,0.4-0.3,0.6-0.5c0.1-0.2,0.2-0.5,0.3-0.8h0.9c-0.1,0.4-0.2,0.8-0.4,1.2c-0.2,0.3-0.4,0.6-0.7,0.8
		c-0.3,0.2-0.6,0.4-1,0.5S667.7,423.5,667.2,423.5z"/>
	<path class="st2" d="M693.5,415.3l-6.3,7h6.6v0.9h-7.6v-1.1l6.2-7h-5.8v-0.9h6.9V415.3z"/>
	<path class="st2" d="M717.2,423.2h-1.2l-3.3-5.1l-1.5,1.5v3.7h-0.9v-12.8h0.9v8l4.3-4.3h1.2l-3.4,3.4L717.2,423.2z"/>
	<path class="st2" d="M737.1,413.9c0.6,0,1.2,0.1,1.7,0.3c0.5,0.2,0.9,0.5,1.3,0.9c0.4,0.4,0.6,0.9,0.8,1.5c0.2,0.6,0.3,1.3,0.3,2
		c0,0.8-0.1,1.4-0.3,2c-0.2,0.6-0.5,1.1-0.8,1.5c-0.4,0.4-0.8,0.7-1.3,0.9c-0.5,0.2-1.1,0.3-1.7,0.3c-0.6,0-1.2-0.1-1.7-0.3
		c-0.5-0.2-0.9-0.5-1.3-0.9s-0.6-0.9-0.8-1.5c-0.2-0.6-0.3-1.3-0.3-2c0-0.8,0.1-1.4,0.3-2c0.2-0.6,0.5-1.1,0.8-1.5s0.8-0.7,1.3-0.9
		C735.9,414,736.5,413.9,737.1,413.9z M737.1,422.5c0.5,0,0.9-0.1,1.3-0.2s0.7-0.4,1-0.7c0.3-0.3,0.5-0.7,0.6-1.2
		c0.2-0.5,0.2-1,0.2-1.7c0-0.6-0.1-1.2-0.2-1.7c-0.2-0.5-0.4-0.9-0.6-1.2c-0.3-0.3-0.6-0.6-1-0.7s-0.8-0.2-1.3-0.2
		c-0.5,0-0.9,0.1-1.3,0.2s-0.7,0.4-1,0.7s-0.5,0.7-0.6,1.2c-0.1,0.5-0.2,1-0.2,1.7c0,0.6,0.1,1.2,0.2,1.7c0.1,0.5,0.4,0.9,0.6,1.2
		s0.6,0.6,1,0.7S736.6,422.5,737.1,422.5z"/>
	<path class="st2" d="M768.9,414.1l-2.5,9.1h-1.2l-2.3-7.6l-2.2,7.6h-1.2l-2.6-9.1h1.1l2.2,7.7l2.2-7.7h1.2l2.3,7.7l2.1-7.7H768.9z"
		/>
	<path class="st2" d="M788.2,423.5c-2.2,0-3.4-0.9-3.6-2.7h0.9c0.1,0.5,0.3,1,0.8,1.3s1.1,0.5,1.9,0.5c0.4,0,0.8,0,1.1-0.1
		c0.3-0.1,0.6-0.2,0.8-0.4c0.2-0.2,0.4-0.3,0.5-0.5c0.1-0.2,0.2-0.4,0.2-0.7s0-0.4-0.1-0.6s-0.2-0.3-0.4-0.5
		c-0.2-0.1-0.5-0.3-0.9-0.4s-0.8-0.3-1.4-0.4c-0.5-0.1-0.9-0.3-1.3-0.4s-0.7-0.3-1-0.5s-0.5-0.4-0.6-0.7c-0.1-0.3-0.2-0.6-0.2-1
		c0-0.4,0.1-0.7,0.2-1c0.2-0.3,0.4-0.5,0.6-0.7s0.6-0.4,1-0.5s0.8-0.2,1.3-0.2c1.1,0,1.9,0.2,2.4,0.5c0.6,0.4,0.9,0.9,0.9,1.7h-0.9
		c-0.1-0.5-0.3-0.8-0.6-1s-0.9-0.3-1.7-0.3c-0.3,0-0.7,0-0.9,0.1s-0.5,0.2-0.7,0.3s-0.4,0.3-0.5,0.5c-0.1,0.2-0.2,0.4-0.2,0.6
		c0,0.1,0,0.3,0.1,0.4s0.2,0.3,0.4,0.4c0.2,0.1,0.5,0.3,0.9,0.5c0.4,0.2,0.9,0.3,1.6,0.5c0.5,0.1,1,0.3,1.4,0.4s0.7,0.3,1,0.5
		c0.3,0.2,0.4,0.4,0.6,0.7s0.2,0.6,0.2,0.9c0,0.4-0.1,0.8-0.2,1.1s-0.4,0.6-0.7,0.9s-0.6,0.4-1.1,0.6S788.7,423.5,788.2,423.5z"/>
	<path class="st2" d="M815.4,423.2h-1.2l-3.3-5.1l-1.5,1.5v3.7h-0.9v-12.8h0.9v8l4.3-4.3h1.2l-3.4,3.4L815.4,423.2z"/>
	<path class="st2" d="M832.8,423.2h-0.9v-9.1h0.9V423.2z M832.8,411.9h-0.9v-1.5h0.9V411.9z"/>
</g>
</svg>