<?xml version="1.0" encoding="utf-8"?>
<!-- Generator: Adobe Illustrator 21.0.0, SVG Export Plug-In . SVG Version: 6.00 Build 0)  -->
<svg version="1.1" id="Layer_1" xmlns="http://www.w3.org/2000/svg" xmlns:xlink="http://www.w3.org/1999/xlink" x="0px" y="0px"
	 viewBox="200 -400 1280 800" style="enable-background:new 0 0 1280 800;" xml:space="preserve">
<style type="text/css">
	    .st0{
                    stroke:#cc00cc;
                    stroke-width: 3;
                    
<!--
                    stroke-linecap:round;
                    stroke-linejoin:round;
-->
                    stroke-miterlimit:0;
                    stroke-dasharray: 900;
                    stroke-dashoffset: 10;
                    animation: draw 15s ease-out forwards;
                }

                @keyframes draw{
                    0%{
                    stroke-dashoffset: 1000;
                    fill: #0a0809;
                    stroke: #ff99ff;

                    }
                    100%
                    {
                    stroke-dashoffset: 2000;
                    fill: #ff00ff;
                    stroke: cc00cc;
                    }
                }

        .st1{
                    stroke:#e9ebe8;
                    stroke-width: 1;
                    fill: e9ebe8;
<!--
                    stroke-linecap:round;
                    stroke-linejoin:round;
-->
                    stroke-miterlimit:0;
                    stroke-dasharray: 250;
                    stroke-dashoffset: 0;
                    animation: draw1 15s ease-out forwards;
                }

                @keyframes draw1{
                    0%{
                    stroke-dashoffset: 250;
                    fill: #0a0809;
                    

                    }
                    100%
                    {
                    stroke-dashoffset: 0;
                    fill: #e9ebe8;
                    }
                }
</style>
<g>
	<path class="st0" d="M427.4,231.4c0,54.3-26.9,81.4-80.8,81.4h-48.4V152.6h48.4c27,0,47.2,6.5,60.6,19.6S427.4,204.9,427.4,231.4z
		 M414.9,231.4c0-10.5-1-20-3.1-28.3c-2.1-8.3-5.8-15.4-11-21.2c-5.3-5.8-12.3-10.2-21.1-13.3c-8.8-3-19.9-4.5-33.4-4.5h-36.4v137
		h36.4c13.3,0,24.4-1.6,33.2-4.7c8.8-3.1,15.9-7.7,21.1-13.7s9-13.3,11.1-21.9C413.9,252.2,414.9,242.4,414.9,231.4z"/>
	<path class="st0" d="M521.4,196.4c7.7,0,14.7,1.3,20.9,4c6.2,2.7,11.5,6.6,15.9,11.7c4.4,5.1,7.7,11.4,10.1,18.8
		c2.3,7.4,3.5,15.7,3.5,25c0,9.5-1.2,17.9-3.6,25.3c-2.4,7.4-5.8,13.7-10.2,18.8c-4.4,5.1-9.7,9-15.9,11.7c-6.2,2.7-13.2,4-20.7,4
		s-14.5-1.3-20.7-4c-6.2-2.6-11.5-6.5-15.9-11.6c-4.4-5.1-7.8-11.4-10.2-18.8c-2.4-7.4-3.7-15.9-3.7-25.5c0-9.4,1.2-17.7,3.6-25.1
		c2.4-7.4,5.8-13.6,10.2-18.7c4.4-5.1,9.7-9,15.9-11.6C506.9,197.7,513.9,196.4,521.4,196.4z M521.4,304c5.7,0,11-1,15.7-3
		c4.7-2,8.8-5,12.2-9.1c3.4-4.1,6.1-9.1,8-15.1c1.9-6,2.8-13,2.8-21c0-7.9-1-14.9-2.8-20.9c-1.9-6-4.6-11-8-14.9
		c-3.4-4-7.5-6.9-12.2-8.9c-4.7-2-10-3-15.7-3c-5.8,0-11.1,1-15.9,3c-4.7,2-8.8,5-12.2,8.9c-3.4,4-6,8.9-7.9,14.9
		c-1.9,6-2.8,13-2.8,20.9c0,8,0.9,15,2.8,21c1.8,6,4.5,11,7.9,15.1c3.4,4.1,7.5,7.1,12.2,9.1C510.3,303,515.6,304,521.4,304z"/>
	<path class="st0" d="M633.2,312.8h-11.7V152.4h11.7V312.8z"/>
	<path class="st0" d="M733,315.8c-7.5,0-14.3-1.3-20.5-4c-6.2-2.6-11.5-6.5-15.9-11.6c-4.4-5.1-7.9-11.3-10.3-18.8
		c-2.4-7.4-3.7-15.9-3.7-25.5c0-9.4,1.2-17.8,3.6-25.2c2.4-7.4,5.8-13.7,10.2-18.8c4.4-5.1,9.7-9,15.9-11.6c6.2-2.7,13.1-4,20.7-4
		c5.5,0,10.5,0.7,15.3,2.2c4.7,1.5,8.9,3.6,12.6,6.4c3.7,2.8,6.7,6.3,9.2,10.5c2.5,4.2,4.2,9,5.2,14.4h-11.4
		c-0.5-3.5-1.6-6.6-3.3-9.4c-1.7-2.7-3.9-5-6.6-6.9c-2.7-1.9-5.9-3.2-9.4-4.2c-3.6-0.9-7.4-1.4-11.5-1.4c-5.7,0-11,1-15.8,3
		c-4.8,2-8.9,5-12.3,9c-3.4,4-6,9-7.9,15c-1.9,6-2.8,13-2.8,20.9c0,8,0.9,15,2.8,21c1.8,6,4.5,11,7.9,15c3.4,4,7.5,7,12.3,9
		c4.8,2,10,3,15.8,3c3.8,0,7.5-0.5,11-1.4c3.5-0.9,6.6-2.3,9.4-4.1c2.8-1.8,5.1-4.1,6.9-6.7c1.8-2.7,3-5.8,3.5-9.4h11.4
		c-1.1,5.5-2.8,10.3-5.3,14.4c-2.5,4.2-5.6,7.6-9.2,10.5c-3.7,2.8-7.8,5-12.6,6.4C743.4,315,738.3,315.8,733,315.8z"/>
	<path class="st0" d="M864.2,315.8c-7.9,0-15-1.3-21.5-4c-6.4-2.7-12-6.6-16.6-11.7c-4.6-5.1-8.2-11.4-10.7-18.8
		c-2.5-7.4-3.8-15.9-3.8-25.3c0-9.2,1.2-17.5,3.7-24.8c2.4-7.4,5.9-13.6,10.4-18.8c4.5-5.1,9.8-9.1,15.9-11.8
		c6.1-2.7,13-4.1,20.5-4.1c7.7,0,14.7,1.4,20.9,4.1c6.2,2.7,11.5,6.7,15.9,11.8s7.7,11.4,10.1,18.8c2.3,7.4,3.5,15.7,3.5,25v2.6
		h-89.1c0.6,7.7,2,14.4,4.2,20.1c2.2,5.7,5.2,10.4,8.8,14.1c3.6,3.8,7.8,6.6,12.5,8.4c4.7,1.9,9.9,2.8,15.4,2.8
		c3.9,0,7.8-0.5,11.7-1.4c3.9-0.9,7.4-2.3,10.6-4.2c3.2-1.9,5.8-4.1,8-6.9c2.1-2.7,3.4-5.9,3.8-9.4h11.5c-1.1,5.4-3,10.1-5.7,14.3
		c-2.7,4.2-6.1,7.7-10.1,10.5c-4,2.9-8.5,5.1-13.6,6.5C875.3,315,869.9,315.8,864.2,315.8z M900.6,246.9c-1.9-13-6.4-22.7-13.2-29.2
		c-6.9-6.4-15.3-9.7-25.4-9.7c-5,0-9.6,0.8-13.9,2.3c-4.3,1.6-8.1,4-11.5,7.2s-6.2,7.3-8.5,12.2c-2.3,4.9-3.9,10.6-4.9,17.1H900.6z"
		/>
	<path class="st1" d="M290.7,372.8h-10.5v-1.5h10.5V372.8z"/>
	<path class="st1" d="M336.2,380h-1.7l-2.3-6.2h-9.5c-0.3,1-0.7,2-1.1,3.1c-0.4,1.1-0.8,2.1-1.1,3.1H319c0.6-1.7,1.3-3.3,1.9-4.9
		s1.2-3.2,1.8-4.8s1.2-3.2,1.8-4.8s1.2-3.2,1.9-4.9h2L336.2,380z M331.8,372.7l-4.5-10.7l-4.2,10.7H331.8z"/>
	<path class="st1" d="M379.6,380h-1.5l-1.9-5.1c-0.2-0.5-0.4-1-0.6-1.4c-0.2-0.4-0.5-0.8-0.8-1.1c-0.3-0.3-0.7-0.6-1-0.8
		s-0.9-0.3-1.4-0.3h-6.7v8.7h-1.4v-19.2h8.6c0.8,0,1.6,0.1,2.3,0.2s1.4,0.4,2,0.8c0.6,0.4,1.1,0.9,1.4,1.6c0.4,0.7,0.5,1.5,0.5,2.5
		c0,0.6-0.1,1.2-0.2,1.8s-0.4,1.1-0.7,1.5c-0.3,0.4-0.7,0.8-1.2,1.1c-0.5,0.3-1.1,0.5-1.7,0.7c0.4,0.3,0.7,0.6,0.9,0.8
		s0.4,0.5,0.6,0.8s0.3,0.6,0.5,1c0.1,0.4,0.3,0.8,0.5,1.2L379.6,380z M365.6,369.9h6.7c0.9,0,1.8-0.1,2.4-0.2
		c0.7-0.1,1.2-0.4,1.7-0.7s0.8-0.7,1-1.3s0.3-1.1,0.3-1.9c0-1.3-0.4-2.3-1.3-2.8c-0.8-0.6-2.1-0.9-3.7-0.9h-7.1V369.9z"/>
	<path class="st1" d="M422.1,362.2h-6.7V380H414v-17.8h-6.6v-1.4h14.8V362.2z"/>
	<path class="st1" d="M452.6,380h-1.4v-19.2h1.4V380z"/>
	<path class="st1" d="M490.3,380.4c-1.3,0-2.4-0.1-3.4-0.4s-1.8-0.7-2.4-1.2c-0.7-0.5-1.2-1.1-1.5-1.8c-0.4-0.7-0.6-1.5-0.6-2.4h1.4
		c0.1,0.9,0.4,1.6,0.8,2.2s0.9,1,1.4,1.4s1.2,0.6,1.9,0.7s1.5,0.2,2.3,0.2c0.9,0,1.6-0.1,2.3-0.3c0.7-0.2,1.3-0.4,1.8-0.8
		c0.5-0.3,0.9-0.8,1.1-1.2c0.3-0.5,0.4-1,0.4-1.6c0-0.6-0.1-1.2-0.3-1.6s-0.6-0.8-1.1-1.2s-1.2-0.6-2.1-0.9
		c-0.9-0.3-1.9-0.5-3.2-0.8c-1.1-0.2-2-0.5-2.7-0.8s-1.4-0.7-1.9-1.1c-0.5-0.4-0.9-0.9-1.1-1.4c-0.2-0.5-0.4-1.1-0.4-1.8
		c0-0.8,0.2-1.4,0.5-2.1s0.8-1.2,1.3-1.6s1.3-0.8,2.1-1s1.7-0.4,2.7-0.4s1.9,0.1,2.7,0.3s1.5,0.6,2.1,1s1.1,1,1.5,1.6
		s0.6,1.3,0.7,2.1h-1.4c-0.1-0.5-0.3-1-0.6-1.4c-0.3-0.4-0.7-0.8-1.1-1.2c-0.5-0.3-1-0.6-1.6-0.8s-1.4-0.3-2.2-0.3
		c-1.7,0-3,0.3-3.9,0.9c-0.9,0.6-1.3,1.5-1.3,2.6c0,0.5,0.1,0.9,0.2,1.3s0.4,0.7,0.8,1s0.9,0.6,1.6,0.8c0.6,0.2,1.4,0.4,2.4,0.6
		c0.6,0.1,1.1,0.2,1.7,0.4s1.2,0.3,1.7,0.5c0.6,0.2,1.1,0.4,1.6,0.7c0.5,0.3,1,0.6,1.3,0.9s0.7,0.8,0.9,1.3c0.2,0.5,0.3,1.1,0.3,1.9
		c0,0.8-0.2,1.6-0.5,2.3s-0.8,1.3-1.4,1.8s-1.3,0.9-2.2,1.2S491.3,380.4,490.3,380.4z"/>
	<path class="st1" d="M541.6,380h-1.7l-2.3-6.2h-9.5c-0.3,1-0.7,2-1.1,3.1s-0.8,2.1-1.1,3.1h-1.5c0.6-1.7,1.3-3.3,1.9-4.9
		s1.2-3.2,1.8-4.8s1.2-3.2,1.8-4.8c0.6-1.6,1.2-3.2,1.9-4.9h2L541.6,380z M537.2,372.7l-4.5-10.7l-4.2,10.7H537.2z"/>
	<path class="st1" d="M584.5,380h-1.8l-11.7-17.6V380h-1.4v-19.2h1.9l11.6,17.5v-17.5h1.4V380z"/>
	<path class="st1" d="M669.1,374.6c0,1.7-0.6,3.1-1.8,4s-2.9,1.4-5.2,1.4h-7v-19.2h6.9c1.9,0,3.4,0.4,4.4,1.1c1,0.7,1.5,1.9,1.5,3.5
		c0,0.4,0,0.9-0.1,1.4c-0.1,0.5-0.2,0.9-0.5,1.3c-0.2,0.4-0.6,0.8-1,1.1s-0.9,0.6-1.6,0.7c0.9,0.1,1.6,0.3,2.2,0.6
		c0.5,0.3,1,0.7,1.3,1.1c0.3,0.4,0.5,0.9,0.6,1.5C669.1,373.6,669.1,374.1,669.1,374.6z M656.6,369.2h5.2c1.7,0,3-0.3,3.8-0.8
		s1.2-1.5,1.2-2.8c0-1.2-0.4-2-1.1-2.6s-1.9-0.9-3.6-0.9l-5.4,0V369.2z M656.6,378.6h5.6c3.6,0,5.4-1.3,5.4-4c0-0.7-0.1-1.3-0.3-1.8
		c-0.2-0.5-0.5-0.9-1-1.2c-0.5-0.3-1-0.6-1.8-0.7s-1.7-0.2-2.8-0.2h-5.2V378.6z"/>
	<path class="st1" d="M713.6,380h-1.7l-2.3-6.2h-9.5c-0.3,1-0.7,2-1.1,3.1s-0.8,2.1-1.1,3.1h-1.5c0.6-1.7,1.3-3.3,1.9-4.9
		s1.2-3.2,1.8-4.8s1.2-3.2,1.8-4.8c0.6-1.6,1.2-3.2,1.9-4.9h2L713.6,380z M709.1,372.7l-4.5-10.7l-4.2,10.7H709.1z"/>
	<path class="st1" d="M756.4,380h-1.9l-7.7-10.5l-3.9,3.8v6.7h-1.4v-19.2h1.4v10.6l10.9-10.6h1.9l-7.9,7.7L756.4,380z"/>
	<path class="st1" d="M798.7,380h-13.9v-19.2h13.4v1.4h-12v7.1h11.2v1.4h-11.2v7.9h12.5V380z"/>
	<path class="st1" d="M843.4,380h-1.5l-1.9-5.1c-0.2-0.5-0.4-1-0.6-1.4c-0.2-0.4-0.5-0.8-0.8-1.1s-0.7-0.6-1-0.8s-0.9-0.3-1.4-0.3
		h-6.7v8.7H828v-19.2h8.6c0.8,0,1.6,0.1,2.3,0.2s1.4,0.4,2,0.8c0.6,0.4,1.1,0.9,1.4,1.6s0.5,1.5,0.5,2.5c0,0.6-0.1,1.2-0.2,1.8
		c-0.2,0.6-0.4,1.1-0.7,1.5s-0.7,0.8-1.2,1.1c-0.5,0.3-1.1,0.5-1.7,0.7c0.4,0.3,0.7,0.6,0.9,0.8c0.2,0.3,0.4,0.5,0.6,0.8
		c0.2,0.3,0.3,0.6,0.5,1c0.1,0.4,0.3,0.8,0.5,1.2L843.4,380z M829.4,369.9h6.7c0.9,0,1.8-0.1,2.4-0.2s1.2-0.4,1.7-0.7s0.8-0.7,1-1.3
		c0.2-0.5,0.3-1.1,0.3-1.9c0-1.3-0.4-2.3-1.3-2.8s-2.1-0.9-3.7-0.9h-7.1V369.9z"/>
	<path class="st1" d="M887.5,360.8l-7.5,11v8.3h-1.4v-8.3l-7.6-11h1.6l6.6,9.5l6.6-9.5H887.5z"/>
	<path class="st1" d="M926.7,372.8h-10.5v-1.5h10.5V372.8z"/>
</g>
</svg>